<?xml version="1.0" encoding="utf-8"?>
<!-- Generator: Adobe Illustrator 22.1.0, SVG Export Plug-In . SVG Version: 6.00 Build 0)  -->
<svg version="1.1" id="Layer_1" xmlns="http://www.w3.org/2000/svg" xmlns:xlink="http://www.w3.org/1999/xlink" x="0px" y="0px"
	 viewBox="0 0 430 68" style="enable-background:new 0 0 430 68;" xml:space="preserve">
<style type="text/css">
	.st0{fill:#009DFF;}
</style>
<polygon class="st0" points="382,42.2 346.7,6.9 346.7,7 340.1,0.4 298.5,42.1 269.1,12.7 269.1,12.7 256.4,0 214.7,41.6 179.4,6.3 
	179.1,6.6 173.4,0.9 131.8,42.6 102.4,13.2 102.4,13.2 89.7,0.5 48,42.1 12.7,6.8 0,19.5 35.3,54.8 48,67.5 60.7,54.8 89.7,25.9 
	119,55.3 131.8,68 144.5,55.3 173.7,26 202,54.4 214.7,67.1 227.4,54.4 256.4,25.4 285.8,54.8 298.5,67.5 311.2,54.8 340.2,25.8 
	369.3,54.9 382,67.6 394.7,54.9 430,19.6 417.3,6.9 "/>
</svg>
